HIERARCHY
ROOT Hip
{
	OFFSET 0 1.131 0.0052
	CHANNELS 6 Xposition Yposition Zposition Xrotation Yrotation Zrotation
	JOINT Abdomen
	{
		OFFSET 0 -0.047353 -0.05
		CHANNELS 3 Xrotation Zrotation Yrotation
		JOINT Chest
		{
			OFFSET 0 0.132153 0.007439
			CHANNELS 3 Xrotation Zrotation Yrotation
			JOINT Neck
			{
				OFFSET 0 0.3078 0.006161
				CHANNELS 3 Xrotation Zrotation Yrotation
				JOINT Head_comp
				{
					OFFSET 0 0.0884 0.013
					CHANNELS 3 Xrotation Yrotation Zrotation
					End Site
					{
						OFFSET -0 0.156 0.0624
					}
				}
			}
			JOINT Left_Collar
			{
				OFFSET 0.02282 0.250342 0.017193
				CHANNELS 2 Yrotation Zrotation
				JOINT Left_Shoulder
				{
					OFFSET 0.15421 0 0
					CHANNELS 3 Xrotation Yrotation Zrotation
					JOINT Left_Forearm
					{
						OFFSET 0.265212 0 0
						CHANNELS 2 Yrotation Xrotation
						JOINT Left_Hand
						{
							OFFSET 0.27571 0 0
							CHANNELS 2 Zrotation Yrotation
							JOINT L1ProxPhalanx
							{
								OFFSET 0.014142 0.001733 0.014142
								CHANNELS 3 Yrotation Zrotation Xrotation
								JOINT L1MidPhalanx
								{
									OFFSET 0.04 0 0
									CHANNELS 1 Zrotation
									JOINT L1DistPhalanx
									{
										OFFSET 0.035 0 0
										CHANNELS 1 Zrotation
										End Site
										{
											OFFSET 0.029 -0 -0
										}
									}
								}
							}
							JOINT L2ProxPhalanx
							{
								OFFSET 0.0821037 0.001578 0.0219996
								CHANNELS 2 Yrotation Zrotation
								JOINT L2MidPhalanx
								{
									OFFSET 0.04 0 0
									CHANNELS 1 Zrotation
									JOINT L2DistPhalanx
									{
										OFFSET 0.028 0 0
										CHANNELS 1 Zrotation
										End Site
										{
											OFFSET 0.02 -0 -0
										}
									}
								}
							}
							JOINT L3ProxPhalanx
							{
								OFFSET 0.083 0 0
								CHANNELS 2 Yrotation Zrotation
								JOINT L3MidPhalanx
								{
									OFFSET 0.053 0 0
									CHANNELS 1 Zrotation
									JOINT L3DistPhalanx
									{
										OFFSET 0.03 0 0
										CHANNELS 1 Zrotation
										End Site
										{
											OFFSET 0.023 -0 -0
										}
									}
								}
							}
							JOINT L4ProxPhalanx
							{
								OFFSET 0.077274 -0.000761 -0.0207055
								CHANNELS 2 Yrotation Zrotation
								JOINT L4MidPhalanx
								{
									OFFSET 0.05 0 0
									CHANNELS 1 Zrotation
									JOINT L4DistPhalanx
									{
										OFFSET 0.03 0 0
										CHANNELS 1 Zrotation
										End Site
										{
											OFFSET 0.023 -0 -0
										}
									}
								}
							}
							JOINT L5ProxPhalanx
							{
								OFFSET 0.0675499 -0.001644 -0.039
								CHANNELS 2 Yrotation Zrotation
								JOINT L5MidPhalanx
								{
									OFFSET 0.04 0 0
									CHANNELS 1 Zrotation
									JOINT L5DistPhalanx
									{
										OFFSET 0.021 0 0
										CHANNELS 1 Zrotation
										End Site
										{
											OFFSET 0.022 -0 -0
										}
									}
								}
							}
						}
					}
				}
			}
			JOINT Right_Collar
			{
				OFFSET -0.02282 0.250342 0.017193
				CHANNELS 2 Yrotation Zrotation
				JOINT Right_Shoulder
				{
					OFFSET -0.15421 0 0
					CHANNELS 3 Xrotation Yrotation Zrotation
					JOINT Right_Forearm
					{
						OFFSET -0.265212 0 0
						CHANNELS 2 Yrotation Xrotation
						JOINT Right_Hand
						{
							OFFSET -0.27571 3e-006 0
							CHANNELS 2 Zrotation Yrotation
							JOINT R1ProxPhalanx
							{
								OFFSET -0.014142 0.001733 0.014142
								CHANNELS 3 Yrotation Zrotation Xrotation
								JOINT R1MidPhalanx
								{
									OFFSET -0.04 0 0
									CHANNELS 1 Zrotation
									JOINT R1DistPhalanx
									{
										OFFSET -0.035 0 0
										CHANNELS 1 Zrotation
										End Site
										{
											OFFSET -0.029 -0 -0
										}
									}
								}
							}
							JOINT R2ProxPhalanx
							{
								OFFSET -0.0821037 0.001578 0.0219996
								CHANNELS 2 Yrotation Zrotation
								JOINT R2MidPhalanx
								{
									OFFSET -0.04 0 0
									CHANNELS 1 Zrotation
									JOINT R2DistPhalanx
									{
										OFFSET -0.028 0 0
										CHANNELS 1 Zrotation
										End Site
										{
											OFFSET -0.02 -0 -0
										}
									}
								}
							}
							JOINT R3ProxPhalanx
							{
								OFFSET -0.083 0 0
								CHANNELS 2 Yrotation Zrotation
								JOINT R3MidPhalanx
								{
									OFFSET -0.053 0 0
									CHANNELS 1 Zrotation
									JOINT R3DistPhalanx
									{
										OFFSET -0.03 0 0
										CHANNELS 1 Zrotation
										End Site
										{
											OFFSET -0.023 -0 -0
										}
									}
								}
							}
							JOINT R4ProxPhalanx
							{
								OFFSET -0.077274 -0.000761 -0.0207055
								CHANNELS 2 Yrotation Zrotation
								JOINT R4MidPhalanx
								{
									OFFSET -0.05 0 0
									CHANNELS 1 Zrotation
									JOINT R4DistPhalanx
									{
										OFFSET -0.03 0 0
										CHANNELS 1 Zrotation
										End Site
										{
											OFFSET -0.023 -0 -0
										}
									}
								}
							}
							JOINT R5ProxPhalanx
							{
								OFFSET -0.0675499 -0.001644 -0.039
								CHANNELS 2 Yrotation Zrotation
								JOINT R5MidPhalanx
								{
									OFFSET -0.04 0 0
									CHANNELS 1 Zrotation
									JOINT R5DistPhalanx
									{
										OFFSET -0.021 0 0
										CHANNELS 1 Zrotation
										End Site
										{
											OFFSET -0.022 -0 -0
										}
									}
								}
							}
						}
					}
				}
			}
		}
	}
	JOINT Left_Thigh
	{
		OFFSET 0.1118 -0.1612 -0.0442
		CHANNELS 3 Xrotation Zrotation Yrotation
		JOINT Left_Shin
		{
			OFFSET 0 -0.477856 0
			CHANNELS 1 Xrotation
			JOINT Left_Foot
			{
				OFFSET 0 -0.431952 0
				CHANNELS 2 Xrotation Zrotation
				JOINT Left_Toe
				{
					OFFSET 0 -0.0442 0.119
					CHANNELS 1 Xrotation
					End Site
					{
						OFFSET -0 -0 0.07
					}
				}
			}
		}
	}
	JOINT Right_Thigh
	{
		OFFSET -0.1118 -0.1612 -0.0442
		CHANNELS 3 Xrotation Zrotation Yrotation
		JOINT Right_Shin
		{
			OFFSET 0 -0.477856 0
			CHANNELS 1 Xrotation
			JOINT Right_Foot
			{
				OFFSET 0 -0.431952 0
				CHANNELS 2 Xrotation Zrotation
				JOINT Right_Toe
				{
					OFFSET 0 -0.0442 0.119
					CHANNELS 1 Xrotation
					End Site
					{
						OFFSET -0 -0 0.07
					}
				}
			}
		}
	}
}
MOTION
Frames: 14
Frame Time: 0.009975
-0.0961979 -0.0601569 0.0314748 1.30432e-012 -4.2445e-008 -5.1099e-006 0 -0 0 0 -0 0 0 -0 0 -0.711705 0.276102 3.25572e-012 -5.35567 -24.2642 -27.2864 -24.8675 -28.8255 -82.7205 0.269749 17.4517 -3.75333 -27.5605 -21.5864 106.421 -7.48048 -7.22872 0.359187 -7.00922 -0.766388 -1.05378 4.72541 -4.46271 -1.39298 -3.41729 8.71841 0.0688695 -13.7112 -8.22532 12.9011 1.57409 -20.5968 -30.2417 18.3695 4.69064 -35.435 19.1176 20.2709 15.6044 6.94613 0.243534 -6.1059 39.2843 48.1543 98.4485 18.3851 18.0529 -4.10342 35.4547 19.8054 17.4211 -7.10858 37.8422 27.5233 21.3702 -9.85741 32.1546 52.2413 1.52467 -22.1144 28.1401 36.1865 50.807 -0.485384 -0.982593 0.00832388 0.0240216 0.461291 0.982634 0 -0.473978 -0.982595 0.00812827 1.70755e-006 0.473907 0.982634 0 
-0.0961088 -0.0601579 0.0315469 1.29564e-012 -4.20983e-008 -5.10991e-006 0 -0 0 0 -0 0 0 -0 0 -0.711714 0.2758 9.45304e-012 -5.35567 -24.2642 -27.2864 -24.8675 -28.8255 -82.7205 0.269749 17.4517 -3.75333 -27.5605 -21.5864 106.421 -7.48048 -7.22872 0.359187 -7.00922 -0.766388 -1.05378 4.72541 -4.46271 -1.39298 -3.41729 8.71841 0.0688695 -13.7112 -8.22532 12.9011 1.57409 -20.5968 -30.2417 18.4137 4.56026 -35.2786 18.8116 20.0385 15.1044 6.58327 0.2717 -6.34471 41.2711 48.3178 97.3788 18.7048 18.0638 -4.25536 35.5238 21.5063 20.4346 -7.0698 38.0265 29.9348 24.0793 -9.57893 33.872 53.2298 4.51312 -21.611 29.7773 36.0901 57.4662 -0.480844 -0.988208 0.00829311 0.0240216 0.456751 0.988248 0 -0.469437 -0.98821 0.00809639 1.70755e-006 0.469366 0.988248 0 
-0.0960158 -0.0601588 0.0316266 2.12781e-013 -4.16323e-008 -5.10992e-006 0 -0 0 0 -0 0 0 -0 0 -0.711724 0.275489 4.3462e-012 -5.35567 -24.2642 -27.2864 -24.8675 -28.8255 -82.7205 0.269749 17.4517 -3.75333 -27.5605 -21.5864 106.421 -7.48048 -7.22872 0.359187 -7.00922 -0.766388 -1.05378 4.72541 -4.46271 -1.39298 -3.41729 8.71841 0.0688695 -13.7112 -8.22532 12.9011 1.57409 -20.5968 -30.2417 18.3802 4.47629 -35.235 18.5834 19.8776 14.7315 6.30266 0.365054 -6.49784 34.4704 42.1249 93.7917 19.7563 27.2389 -4.21288 18.5143 11.2477 11.2609 -7.37461 18.7156 17.0258 14.4147 -10.7293 16.5114 31.493 1.55591 -26.3977 10.0471 57.0269 -35.4411 -0.475824 -0.994063 0.00825515 0.0240216 0.451731 0.994103 0 -0.464419 -0.994065 0.00805728 2.41484e-006 0.464346 0.994103 0 
-0.095914 -0.06016 0.0316987 -4.14531e-013 -4.10152e-008 -5.10994e-006 0 -0 0 0 -0 0 0 -0 0 -0.711733 0.275194 7.27811e-012 -5.35567 -24.2642 -27.2864 -24.8675 -28.8255 -82.7205 0.269749 17.4517 -3.75333 -27.5605 -21.5864 106.421 -7.48048 -7.22872 0.359187 -7.00922 -0.766388 -1.05378 4.72541 -4.46271 -1.39298 -3.41729 8.71841 0.0688695 -13.7112 -8.22532 12.9011 1.57409 -20.5968 -30.2417 18.3405 4.42743 -35.3679 18.2967 19.7965 14.4616 6.16349 0.477607 -6.56309 32.9887 30.7923 78.559 21.2869 43.9079 -0.799904 0.161869 2.93441 3.13932 -3.54033 0.39699 2.41128 4.1931 -5.34483 6.33751 0.658689 -2.18073 -13.5916 24.5577 -6.83798 -38.6972 -0.471284 -1.00048 0.00822912 0.0240216 0.44719 1.00051 0 -0.459878 -1.00048 0.00802997 2.5784e-006 0.459806 1.00052 0 
-0.0958274 -0.060161 0.0317612 3.88466e-013 -4.06642e-008 -5.10995e-006 0 -0 0 0 -0 0 0 -0 0 -0.711741 0.274915 3.22049e-012 -5.35567 -24.2642 -27.2864 -24.8675 -28.8255 -82.7205 0.269749 17.4517 -3.75333 -27.5605 -21.5864 106.421 -7.48048 -7.22872 0.359187 -7.00922 -0.766388 -1.05378 4.72541 -4.46271 -1.39298 -3.41729 8.71841 0.0688695 -13.7112 -8.22532 12.9011 1.57409 -20.5968 -30.2417 18.286 4.3683 -35.5861 18.0372 19.7669 14.2657 6.16966 0.578823 -6.58485 37.4747 32.5002 79.8133 21.0077 43.5006 -0.428434 8.51394 9.75461 9.33516 -2.64115 9.1626 9.54652 11.1349 -4.57638 13.78 12.4679 1.38192 -9.4432 35.1429 -31.3074 42.0522 -0.467348 -1.00593 0.00820492 0.0240216 0.443254 1.00597 0 -0.455941 -1.00593 0.00800467 8.75118e-007 0.45587 1.00597 0 
-0.0957713 -0.0601615 0.031824 1.69492e-012 -4.04989e-008 -5.10995e-006 0 -0 0 0 -0 0 0 -0 0 -0.711748 0.27472 2.50141e-012 -5.35567 -24.2642 -27.2864 -24.8675 -28.8255 -82.7205 0.269749 17.4517 -3.75333 -27.5605 -21.5864 106.421 -7.48048 -7.22872 0.359187 -7.00922 -0.766388 -1.05378 4.72541 -4.46271 -1.39298 -3.41729 8.71841 0.0688695 -13.7112 -8.22532 12.9011 1.57409 -20.5968 -30.2417 18.2208 4.30139 -35.8392 17.7907 19.7701 14.1279 6.28942 0.636953 -6.54418 36.6661 41.4246 91.3114 23.4006 38.7449 -0.926837 13.46 6.52102 5.7548 -3.62188 9.66691 8.60847 9.94213 -6.60713 9.95742 17.1037 -2.21536 -14.2684 18.6559 21.857 -162.929 -0.463397 -1.00946 0.00816408 0.0240216 0.439303 1.0095 0 -0.45199 -1.00946 0.00796312 8.2816e-007 0.451919 1.0095 0 
-0.0957148 -0.060162 0.0318901 5.66388e-013 -4.01132e-008 -5.10996e-006 0 -0 0 0 -0 0 0 -0 0 -0.711755 0.274544 2.57251e-012 -5.35567 -24.2642 -27.2864 -24.8675 -28.8255 -82.7205 0.269749 17.4517 -3.75333 -27.5605 -21.5864 106.421 -7.48048 -7.22872 0.359187 -7.00922 -0.766388 -1.05378 4.72541 -4.46271 -1.39298 -3.41729 8.71841 0.0688695 -13.7112 -8.22532 12.9011 1.57409 -20.5968 -30.2417 18.1403 4.29238 -36.0414 17.6037 19.7487 14.0506 6.44525 0.664542 -6.46374 29.0505 42.6938 101.721 24.5559 39.2813 -1.82976 16.1884 11.3198 13.1732 -4.81679 9.68597 16.0019 18.0274 -7.02803 5.17978 26.4395 4.22805 -17.6589 -1.65019 91.391 -46.2629 -0.459233 -1.01302 0.00811925 0.0240216 0.435139 1.01306 0 -0.447826 -1.01302 0.00791759 1.70755e-006 0.447754 1.01306 0 
-0.0956638 -0.0601625 0.0319456 9.35149e-013 -3.97553e-008 -5.10997e-006 0 -0 0 0 -0 0 0 -0 0 -0.71176 0.274384 1.54256e-012 -5.35567 -24.2642 -27.2864 -24.8675 -28.8255 -82.7205 0.269749 17.4517 -3.75333 -27.5605 -21.5864 106.421 -7.48048 -7.22872 0.359187 -7.00922 -0.766388 -1.05378 4.72541 -4.46271 -1.39298 -3.41729 8.71841 0.0688695 -13.7112 -8.22532 12.9011 1.57409 -20.5968 -30.2417 18.0697 4.2727 -36.1618 17.4584 19.71 14.0301 6.58726 0.643383 -6.42027 34.7185 45.2126 100.446 20.7197 30.5613 -1.92112 33.5769 26.8515 28.9216 -4.0502 31.7601 34.7256 30.8523 -6.00518 24.9551 50.607 12.919 -16.1503 10.3195 96.0055 -27.3942 -0.45574 -1.01624 0.00808307 0.0240216 0.431646 1.01627 0 -0.444333 -1.01624 0.00788076 2.41484e-006 0.444261 1.01627 0 
-0.0956447 -0.0601624 0.031992 6.81114e-013 -3.94922e-008 -5.10998e-006 0 -0 0 0 -0 0 0 -0 0 -0.711765 0.274293 2.99985e-013 -5.35567 -24.2642 -27.2864 -24.8675 -28.8255 -82.7205 0.269749 17.4517 -3.75333 -27.5605 -21.5864 106.421 -7.48048 -7.22872 0.359187 -7.00922 -0.766388 -1.05378 4.72541 -4.46271 -1.39298 -3.41729 8.71841 0.0688695 -13.7112 -8.22532 12.9011 1.57409 -20.5968 -30.2417 18.0016 4.25649 -36.1957 17.3772 19.6653 14.0216 6.59329 0.585677 -6.41323 45.0618 49.8777 91.7486 20.266 26.9139 -2.30838 41.9363 27.7825 26.3423 -4.61126 43.4285 36.4522 27.6108 -7.01427 36.6559 58.9141 8.02666 -20.2866 17.6984 104.785 -22.9466 -0.452816 -1.01744 0.00804072 0.0240216 0.428723 1.01747 0 -0.441409 -1.01744 0.00783818 2.41484e-006 0.441337 1.01747 0 
-0.0956258 -0.0601625 0.0320304 -5.55961e-013 -3.92327e-008 -5.10998e-006 0 -0 0 0 -0 0 0 -0 0 -0.711768 0.274235 4.82193e-013 -5.35567 -24.2642 -27.2864 -24.8675 -28.8255 -82.7205 0.269749 17.4517 -3.75333 -27.5605 -21.5864 106.421 -7.48048 -7.22872 0.359187 -7.00922 -0.766388 -1.05378 4.72541 -4.46271 -1.39298 -3.41729 8.71841 0.0688695 -13.7112 -8.22532 12.9011 1.57409 -20.5968 -30.2417 17.9494 4.22592 -36.1872 17.3248 19.6074 14.0094 6.55153 0.529869 -6.41737 40.276 51.2994 96.8098 18.9339 24.4062 -5.23985 39.8964 27.429 27.0565 -7.7617 42.2675 38.6384 30.2145 -10.9055 33.266 65.5885 7.72753 -30.2443 9.19221 109.864 -10.3679 -0.450397 -1.01863 0.00800709 0.0240216 0.426304 1.01866 0 -0.43899 -1.01863 0.00780431 1.26779e-006 0.43892 1.01866 0 
-0.0955953 -0.0601628 0.0320604 -9.02038e-013 -3.9064e-008 -5.10998e-006 0 -0 0 0 -0 0 0 -0 0 -0.711771 0.274153 6.2245e-013 -5.35567 -24.2642 -27.2864 -24.8675 -28.8255 -82.7205 0.269749 17.4517 -3.75333 -27.5605 -21.5864 106.421 -7.48048 -7.22872 0.359187 -7.00922 -0.766388 -1.05378 4.72541 -4.46271 -1.39298 -3.41729 8.71841 0.0688695 -13.7112 -8.22532 12.9011 1.57409 -20.5968 -30.2417 17.9121 4.18868 -36.1564 17.2834 19.5535 13.9778 6.50035 0.488298 -6.40505 31.7979 53.8415 106.411 17.3707 18.7768 -9.24324 40.9255 24.7144 29.0514 -11.8058 42.7479 38.802 32.3288 -16.9848 31.3005 68.2328 6.09449 -40.1291 2.43195 112.448 -14.6061 -0.448506 -1.02055 0.00798852 0.0240216 0.424414 1.02058 0 -0.4371 -1.02055 0.00778536 0 0.43703 1.02058 0 
-0.0955693 -0.0601631 0.0320868 1.87633e-012 -3.88946e-008 -5.10999e-006 0 -0 0 0 -0 0 0 -0 0 -0.711774 0.274072 3.92639e-013 -5.35567 -24.2642 -27.2864 -24.8675 -28.8255 -82.7205 0.269749 17.4517 -3.75333 -27.5605 -21.5864 106.421 -7.48048 -7.22872 0.359187 -7.00922 -0.766388 -1.05378 4.72541 -4.46271 -1.39298 -3.41729 8.71841 0.0688695 -13.7112 -8.22532 12.9011 1.57409 -20.5968 -30.2417 17.8836 4.14683 -36.0316 17.2712 19.4812 13.9592 6.31977 0.43316 -6.40456 60.6903 11.987 80.6296 17.2684 18.1703 -6.88426 20.2072 20.3164 19.9996 3.11053 22.0799 26.0854 23.2279 1.82016 30.6332 38.656 9.22131 -13.9391 22.1136 54.0493 -14.0578 -0.446844 -1.02218 0.00797168 0.0240216 0.422751 1.02222 0 -0.435437 -1.02219 0.00776819 8.02547e-007 0.435367 1.02222 0 
-0.0955442 -0.0601634 0.0321019 1.78788e-012 -3.87693e-008 -5.10999e-006 0 -0 0 0 -0 0 0 -0 0 -0.711776 0.274001 2.63892e-013 -5.35567 -24.2642 -27.2864 -24.8675 -28.8255 -82.7205 0.269749 17.4517 -3.75333 -27.5605 -21.5864 106.421 -7.48048 -7.22872 0.359187 -7.00922 -0.766388 -1.05378 4.72541 -4.46271 -1.39298 -3.41729 8.71841 0.0688695 -13.7112 -8.22532 12.9011 1.57409 -20.5968 -30.2417 17.867 4.10341 -35.744 17.3194 19.3554 13.9625 5.91585 0.361034 -6.41352 68.8723 -32.4703 70.5142 15.1377 16.257 -3.07863 -2.5552 13.5686 9.36035 9.76238 -0.294696 8.36531 7.17491 16.943 24.3749 1.96683 2.91417 15.1758 48.242 -19.7314 -11.5449 -0.445892 -1.02377 0.00796704 0.0240216 0.421799 1.02381 0 -0.434486 -1.02377 0.00776324 9.09269e-007 0.434415 1.02381 0 
-0.0955222 -0.0601638 0.0321053 1.96361e-012 -3.87299e-008 -5.10999e-006 0 -0 0 0 -0 0 0 -0 0 -0.711777 0.273938 1.14991e-013 -5.35567 -24.2642 -27.2864 -24.8675 -28.8255 -82.7205 0.269749 17.4517 -3.75333 -27.5605 -21.5864 106.421 -7.48048 -7.22872 0.359187 -7.00922 -0.766388 -1.05378 4.72541 -4.46271 -1.39298 -3.41729 8.71841 0.0688695 -13.7112 -8.22532 12.9011 1.57409 -20.5968 -30.2417 17.8641 4.06823 -35.4529 17.3779 19.2358 13.9579 5.45988 0.322872 -6.42064 64.0811 -5.07535 67.2558 15.765 18.3071 12.6159 4.65244 20.8189 37.065 12.2679 14.2233 15.1605 19.1645 12.8165 28.1019 9.74924 4.0407 8.20872 57.3849 -26.2263 27.1568 -0.44568 -1.02515 0.00797399 0.0240216 0.421587 1.02519 0 -0.434274 -1.02515 0.00776991 7.94009e-007 0.434203 1.02519 0 
